<svg width="313" height="313" viewBox="0 0 313 313" fill="none" xmlns="http://www.w3.org/2000/svg">
<g clip-path="url(#clip0)">
<path d="M305.2 178.159C302 177.359 298.8 178.159 296 180.159C285.6 188.959 273.6 196.159 260.4 200.959C248 205.759 234.4 208.159 220 208.159C187.6 208.159 158 194.959 136.8 173.759C115.6 152.559 102.4 122.959 102.4 90.559C102.4 76.959 104.8 63.759 108.8 51.759C113.2 38.959 119.6 27.359 128 17.359C131.6 12.959 130.8 6.559 126.4 2.959C123.6 0.958998 120.4 0.158998 117.2 0.958998C83.2 10.159 53.6 30.559 32.4 57.759C12 84.559 0 117.759 0 153.759C0 197.359 17.6 236.959 46.4 265.759C75.2 294.559 114.4 312.159 158.4 312.159C195.2 312.159 229.2 299.359 256.4 278.159C284 256.559 304 225.759 312.4 190.559C314 184.959 310.8 179.359 305.2 178.159Z" fill="#F8E113"/>
</g>
<defs>
<clipPath id="clip0">
<rect width="312.812" height="312.812" fill="white"/>
</clipPath>
</defs>
</svg>
